<svg width="18" height="19" viewBox="0 0 18 19" fill="none" xmlns="http://www.w3.org/2000/svg">
<path d="M7.20272 12.1106C6.9965 11.312 6.91917 10.6603 6.97073 10.1555C7.02965 9.65068 7.19536 9.22877 7.46786 8.88973C7.74037 8.55068 8.10493 8.23048 8.56156 7.92911C9.20968 7.49212 9.64421 7.13425 9.86516 6.85548C10.0935 6.56918 10.2076 6.24521 10.2076 5.88356C10.2076 5.35616 10.0235 4.96438 9.65526 4.70822C9.28701 4.44452 8.74568 4.31267 8.03128 4.31267C7.47154 4.31267 6.96704 4.39555 6.51778 4.5613C6.06852 4.71952 5.61925 4.94178 5.16999 5.22808L4.4519 2.52706C4.64339 2.34623 4.94904 2.15788 5.36884 1.96199C5.79601 1.75856 6.3042 1.58904 6.89339 1.45342C7.48259 1.31781 8.11966 1.25 8.80461 1.25C9.77678 1.25 10.6458 1.41199 11.4118 1.73596C12.1851 2.05993 12.7964 2.51952 13.2457 3.11473C13.7023 3.7024 13.9306 4.39555 13.9306 5.19418C13.9306 5.6613 13.8459 6.09075 13.6765 6.48253C13.5145 6.87431 13.242 7.26233 12.859 7.64657C12.4834 8.02329 11.9789 8.4339 11.3455 8.87842C10.9184 9.17226 10.6053 9.45103 10.4065 9.71472C10.2076 9.97842 10.0935 10.2949 10.064 10.664C10.0419 11.0257 10.0714 11.5079 10.1524 12.1106H7.20272ZM8.74937 17.75C8.18963 17.75 7.70354 17.5692 7.2911 17.2075C6.87866 16.8384 6.67244 16.3486 6.67244 15.7384C6.67244 15.324 6.76451 14.9661 6.94863 14.6647C7.14012 14.3634 7.39421 14.1298 7.71091 13.964C8.0276 13.7983 8.37375 13.7154 8.74937 13.7154C9.31647 13.7154 9.80256 13.9 10.2076 14.2692C10.6127 14.6308 10.8152 15.1205 10.8152 15.7384C10.8152 16.1527 10.7195 16.5106 10.528 16.812C10.3439 17.1134 10.0935 17.3431 9.77678 17.5014C9.46745 17.6671 9.12498 17.75 8.74937 17.75Z" fill="#E9E9F3"/>
</svg>
